<svg xmlns="http://www.w3.org/2000/svg" viewBox="0 0 128 128" width="128" height="128">
  <defs>
    <linearGradient id="gradient" x1="0%" y1="0%" x2="100%" y2="100%">
      <stop offset="0%" style="stop-color:#4f46e5;stop-opacity:1" />
      <stop offset="100%" style="stop-color:#7c3aed;stop-opacity:1" />
    </linearGradient>
  </defs>
  
  <!-- 背景圆形 -->
  <circle cx="64" cy="64" r="60" fill="url(#gradient)" stroke="#ffffff" stroke-width="2"/>
  
  <!-- 笔记本图标 -->
  <rect x="32" y="28" width="64" height="72" rx="4" ry="4" fill="#ffffff" stroke="none"/>
  
  <!-- 笔记本线条 -->
  <line x1="40" y1="44" x2="88" y2="44" stroke="#e5e7eb" stroke-width="2" stroke-linecap="round"/>
  <line x1="40" y1="56" x2="88" y2="56" stroke="#e5e7eb" stroke-width="2" stroke-linecap="round"/>
  <line x1="40" y1="68" x2="80" y2="68" stroke="#e5e7eb" stroke-width="2" stroke-linecap="round"/>
  <line x1="40" y1="80" x2="84" y2="80" stroke="#e5e7eb" stroke-width="2" stroke-linecap="round"/>
  
  <!-- GitHub标志 -->
  <circle cx="76" cy="52" r="8" fill="#24292f"/>
  <path d="M76 46c-3.3 0-6 2.7-6 6 0 2.6 1.7 4.9 4 5.7v2.3c0 .6.4 1 1 1s1-.4 1-1v-2.3c2.3-.8 4-3.1 4-5.7 0-3.3-2.7-6-6-6z" fill="#ffffff"/>
  
  <!-- 编辑笔图标 -->
  <path d="M84 72l8-8 4 4-8 8-4-4z" fill="#f59e0b" stroke="#ffffff" stroke-width="1"/>
  <path d="M84 72l-2 6 6-2z" fill="#f59e0b"/>
</svg>